<?xml version="1.0" encoding="UTF-8" standalone="no"?>
<!-- Created with Inkscape (http://www.inkscape.org/) -->

<svg
   width="272.52084mm"
   height="230.1875mm"
   viewBox="0 0 272.52084 230.1875"
   version="1.1"
   id="svg1"
   xml:space="preserve"
   inkscape:export-filename="willeeproject_logo.svg"
   inkscape:export-xdpi="96"
   inkscape:export-ydpi="96"
   xmlns:inkscape="http://www.inkscape.org/namespaces/inkscape"
   xmlns:sodipodi="http://sodipodi.sourceforge.net/DTD/sodipodi-0.dtd"
   xmlns:xlink="http://www.w3.org/1999/xlink"
   xmlns="http://www.w3.org/2000/svg"
   xmlns:svg="http://www.w3.org/2000/svg"><sodipodi:namedview
     id="namedview1"
     pagecolor="#ffffff"
     bordercolor="#000000"
     borderopacity="0.25"
     inkscape:showpageshadow="2"
     inkscape:pageopacity="0.0"
     inkscape:pagecheckerboard="0"
     inkscape:deskcolor="#d1d1d1"
     inkscape:document-units="mm"><inkscape:page
       x="0"
       y="0"
       width="272.52084"
       height="230.1875"
       id="page2"
       margin="0"
       bleed="0" /></sodipodi:namedview><defs
     id="defs1"><linearGradient
       id="swatch4"
       inkscape:swatch="solid"><stop
         style="stop-color:#2ec4b6;stop-opacity:1;"
         offset="0"
         id="stop4" /></linearGradient><linearGradient
       inkscape:collect="always"
       xlink:href="#swatch4"
       id="linearGradient4"
       x1="-26.459164"
       y1="148.19868"
       x2="236.6698"
       y2="148.19868"
       gradientUnits="userSpaceOnUse" /><linearGradient
       inkscape:collect="always"
       xlink:href="#swatch4"
       id="linearGradient2"
       gradientUnits="userSpaceOnUse"
       x1="-26.459164"
       y1="148.19868"
       x2="236.6698"
       y2="148.19868" /></defs><g
     inkscape:label="Layer 1"
     inkscape:groupmode="layer"
     id="layer1"
     transform="translate(31.220839,-33.337502)"><g
       id="g1"
       style="fill:url(#linearGradient4);stroke:#1d7a5f;stroke-opacity:1"><path
         style="display:inline;fill:url(#linearGradient2);fill-opacity:1;stroke:#1d7a5f;stroke-opacity:1"
         d="m 75.236193,258.47385 c -0.457333,-0.13252 -1.432929,-0.78166 -2.16799,-1.44254 -2.515031,-2.26123 -3.051075,-5.43205 -1.445627,-8.55119 0.898176,-1.74503 2.114756,-2.77223 4.116625,-3.47583 1.441726,-0.50673 2.182972,-0.52929 17.391041,-0.52929 h 15.885128 l -0.0697,-8.92969 -0.0697,-8.92968 -33.734375,-0.028 c -38.917074,-0.0323 -36.397383,0.13143 -42.465626,-2.75848 -9.327077,-4.44188 -15.810166,-13.28862 -17.051359,-23.26808 -0.175588,-1.41177 -0.27885,-10.54833 -0.27885,-24.6724 0,-12.3367 0.456025,-22.18033 -0.0849,-22.43038 -0.283312,-0.13097 -6.2295542,-2.20856 -7.8526014,-2.93083 -3.7847237,-1.68422 -8.9969281,-4.88097 -12.4545915,-7.63866 -2.2429914,-1.78891 -6.7887831,-6.28989 -8.7108181,-8.62493 -5.099637,-6.19547 -9.613478,-15.33177 -11.23582,-22.74203 -2.937836,-13.418953 -1.44913,-26.513513 4.361627,-38.364587 C -14.894445,61.457 -5.1112377,51.205199 6.0854128,45.160937 c 6.5570642,-3.539684 12.8898082,-5.6543 21.6958342,-7.244623 1.827585,-0.330052 5.874147,-0.778408 9.846628,-0.784697 4.170597,-0.0066 8.273883,0.445365 10.261706,0.793597 9.615498,1.684544 18.371669,5.027314 25.929168,9.898761 4.352389,2.805484 7.317468,5.238553 11.509375,9.444305 l 4.233334,4.247316 60.060422,0.140237 c 55.95862,0.13066 60.17787,0.171664 61.78021,0.600404 6.6381,1.776163 11.21425,4.48406 15.95563,9.441587 4.75968,4.97667 7.30514,9.671311 8.825,16.276105 0.46474,2.019604 0.48708,4.652435 0.48708,57.414581 v 55.29792 l -0.58946,2.24896 c -1.22355,4.66817 -2.89256,8.01527 -5.90284,11.8378 -4.80923,6.10687 -12.9305,10.88211 -19.70145,11.58431 -0.87313,0.0906 -14.44626,0.20101 -30.16251,0.24546 -15.71625,0.0445 -28.81312,0.0952 -29.10416,0.11284 -0.51792,0.0313 -0.52917,0.21908 -0.52917,8.82945 v 8.79743 l 15.61042,0.13229 c 15.20927,0.12889 15.64162,0.14673 16.82469,0.69393 3.57063,1.65152 5.32085,5.99544 3.77137,9.36024 -0.6781,1.47255 -2.26156,3.08647 -3.66273,3.73321 -1.01824,0.46999 -3.06809,0.48782 -54.10729,0.47045 -31.049207,-0.0106 -53.393797,-0.11797 -53.880477,-0.25898 z m 62.284517,-22.87869 -0.0697,-8.87985 -7.54062,0.006 c -4.14735,0.003 -7.65969,0.0106 -7.80521,0.0163 -0.17049,0.007 -0.27199,3.16267 -0.28541,8.87393 l -0.0208,8.86354 h 7.89571 7.8957 z m 72.55846,-23.97319 c 2.68988,-0.95722 4.08529,-1.78017 6.08134,-3.58649 2.1067,-1.90646 3.95546,-4.7052 4.78885,-7.24961 l 0.63919,-1.95149 v -54.23959 c 0,-51.912466 -0.0209,-54.307691 -0.48676,-55.82708 -1.35957,-4.434119 -4.83588,-8.641406 -8.69129,-10.518842 -3.94281,-1.919994 0.51258,-1.782984 -60.26523,-1.853244 -48.60958,-0.05619 -54.766177,-0.0186 -54.622297,0.333544 1.431489,3.503531 2.649957,7.855957 3.444277,12.303125 0.65695,3.678082 0.65692,12.086477 -6e-5,16.139587 -1.977804,12.2017 -6.82317,22.06977 -15.452975,31.47151 l -1.955637,2.13057 0.148338,2.24896 c 0.08158,1.23693 0.283097,3.66091 0.447804,5.38664 0.25875,2.71107 0.237418,3.48229 -0.156891,5.67224 -0.250997,1.39401 -0.79629,3.29221 -1.211763,4.21822 -2.90106,6.46591 -10.551511,11.05564 -16.232249,9.73819 -3.689852,-0.85574 -5.958789,-2.0377 -13.624925,-7.09769 l -3.295063,-2.17489 -7.817437,0.0696 c -4.29959,0.0383 -8.799702,-0.0256 -10.000249,-0.14198 l -2.182813,-0.21153 v 20.96489 c 0,14.33853 0.09279,21.40804 0.293586,22.36697 0.586235,2.79969 2.857959,6.28768 5.65954,8.68962 1.644383,1.40981 5.019175,3.05268 7.282852,3.54534 1.455458,0.31677 14.003929,0.36581 83.469232,0.32622 l 81.75626,-0.0466 z m -89.82604,-18.44363 c -2.30036,-0.6094 -4.0383,-2.11417 -5.23242,-4.53042 l -0.58842,-1.19063 v -38.1 -38.1 l 0.84189,-1.61042 c 1.72229,-3.29453 5.05214,-5.03332 8.61564,-4.49894 1.35335,0.20295 1.90954,0.54115 27.58414,16.77321 10.87318,6.87427 19.55715,12.35912 28.04583,17.71394 5.98348,3.77448 6.31821,4.04243 7.13465,5.71117 1.21927,2.49209 0.99853,4.71649 -0.72084,7.26397 -0.81842,1.2126 -2.3643,2.25988 -29.82943,20.20848 -3.56526,2.32991 -8.38729,5.48504 -10.71563,7.01139 -17.5573,11.50977 -19.15867,12.53839 -20.19422,12.97147 -1.07642,0.45017 -3.86227,0.6626 -4.94119,0.37678 z M 69.870351,150.83285 c 0.677947,-0.67794 0.773358,-0.96367 0.773077,-2.3151 -1.77e-4,-0.84794 -0.193289,-3.14905 -0.429138,-5.11358 -0.235849,-1.96453 -0.443929,-5.00063 -0.4624,-6.74688 -0.04844,-4.57967 0.292494,-5.3189 4.437596,-9.6218 6.327506,-6.56838 8.907902,-10.87894 11.390776,-19.02832 1.683855,-5.52681 1.760028,-15.960351 0.153853,-21.073293 C 83.910642,81.129211 82.383963,77.818895 79.672489,73.790379 73.999377,65.361671 66.904219,59.740051 56.48854,55.421321 51.079158,53.17839 42.179507,51.657212 36.07875,51.932766 c -6.313698,0.285173 -10.503887,1.0192 -15.698273,2.749985 -12.2673308,4.087513 -22.5760811,13.168186 -28.1818314,24.824542 -2.2801796,4.741308 -3.2980986,8.371476 -4.0163076,14.323221 -0.426914,3.53781 -0.426385,3.966663 0.0098,7.936846 0.253603,2.30833 0.701743,5.14975 0.995866,6.31428 2.5556486,10.1186 8.2312906,18.37268 17.2500541,25.08675 3.2807739,2.44238 10.2419959,5.8396 14.5195549,7.08582 6.51725,1.89874 13.027551,2.53568 21.111138,2.06541 9.00628,-0.52394 10.399912,-0.22275 16.362711,3.53625 10.037039,6.32744 10.072855,6.34302 11.438892,4.97698 z M 10.142246,117.71384 C 8.3272287,117.18837 8.3108502,117.14461 3.6653808,100.40938 3.0998568,98.372085 2.4040684,95.931304 2.1191844,94.985418 1.8343004,94.039533 1.1079978,91.479689 0.50517873,89.296877 -1.5499131,81.855374 -1.5924409,81.308714 -0.21867293,79.992352 0.54060338,79.264804 0.64698132,79.24271 3.3906827,79.24271 c 3.1217667,0 3.9631134,0.309904 4.5244299,1.666544 0.4609391,1.114038 3.1356214,11.706259 4.2326284,16.761964 0.767341,3.536392 0.880967,3.565562 1.706091,0.437857 0.395647,-1.49973 0.945011,-3.500688 1.22081,-4.446573 0.275798,-0.945886 1.16934,-4.100298 1.985647,-7.009804 0.816307,-2.909507 1.659124,-5.556989 1.872927,-5.883294 0.821744,-1.254139 1.628012,-1.526694 4.516249,-1.526694 3.949931,0 4.049441,0.09927 5.569588,5.55625 0.364839,1.309687 0.879061,3.095625 1.142715,3.96875 0.263654,0.873125 1.048507,3.611562 1.744118,6.085417 0.69561,2.473854 1.353155,4.602358 1.46121,4.73001 0.214556,0.253467 0.199272,0.308293 1.834854,-6.582094 0.621765,-2.619375 1.418151,-5.893594 1.769746,-7.276041 0.351595,-1.382448 0.75907,-3.020172 0.905501,-3.639387 0.553482,-2.340523 2.224415,-3.1621 5.948792,-2.92495 1.616135,0.102908 1.818149,0.185867 2.642178,1.085038 0.573973,0.626313 0.888979,1.234542 0.883085,1.705101 -0.0089,0.706791 -0.919683,4.124136 -3.544652,13.299198 -2.022983,7.070938 -2.152022,7.526438 -3.953657,13.956198 -0.947938,3.38305 -1.878971,6.46796 -2.068964,6.85537 -0.615701,1.25547 -1.585137,1.74472 -3.701406,1.86804 -1.6451,0.0959 -2.114446,0.0206 -3.126326,-0.50164 -1.386078,-0.71529 -1.554396,-1.11028 -3.587921,-8.41964 -0.668005,-2.40109 -1.322697,-4.66328 -1.454872,-5.02708 -0.132174,-0.3638 -0.414132,-1.37583 -0.626573,-2.24896 -0.212441,-0.87312 -0.62299,-2.420934 -0.912331,-3.43958 -0.289342,-1.018646 -0.604288,-2.14974 -0.699881,-2.513542 -0.44868,-1.707561 -0.3631,-1.840877 -1.528599,2.38125 -0.220938,0.800365 -0.783278,2.824432 -1.249647,4.497912 -0.466368,1.67349 -0.943664,3.3999 -1.060658,3.83646 -1.224028,4.56748 -2.743032,9.38817 -3.126388,9.92188 -0.775572,1.07974 -2.082989,1.58949 -4.009381,1.56322 -0.945885,-0.0129 -2.096873,-0.13262 -2.55775,-0.26605 z m 42.313028,0.0324 c -1.043279,-0.24767 -1.570166,-0.66211 -2.069597,-1.6279 -0.318007,-0.61496 -0.379269,-3.48776 -0.37844,-17.746355 9.52e-4,-16.38338 0.02001,-17.043823 0.515403,-17.856278 0.748689,-1.227877 1.762375,-1.403083 8.082566,-1.396997 7.852603,0.0076 10.350193,0.288571 12.767371,1.436484 3.694272,1.754402 6.037357,4.858417 6.84149,9.063302 0.442877,2.315845 0.443434,2.567318 0.01108,5.007414 -0.548172,3.09375 -1.353871,4.710186 -3.362677,6.74638 -2.881297,2.92057 -5.945384,3.93187 -11.913009,3.93187 H 59.00208 v 5.25598 c 0,4.99105 -0.02891,5.29275 -0.57359,5.98519 -0.315474,0.40106 -0.966494,0.89337 -1.44671,1.09402 -0.932483,0.38961 -3.118167,0.44123 -4.526507,0.10689 z M 66.409516,95.632572 c 2.650704,-1.557147 2.847309,-5.014449 0.391667,-6.887459 -0.945766,-0.721371 -1.134844,-0.758376 -4.393699,-0.859913 l -3.405403,-0.106102 v 4.291825 4.291825 l 3.241146,-0.09335 c 2.68226,-0.07726 3.400673,-0.187065 4.166289,-0.636823 z"
         id="path1"
         sodipodi:nodetypes="ssssscccssssssssscssscsscssssscsssscscsssssssccccsccccssscsssssssscssssssccccssssscssscccssssssssssssssssssssssssssssssssssssssssssssssssssssscsssccssssssssssssssscssssscsssssssscccsss" /></g></g></svg>
